# xmcd
#
# Track frame offsets:
#   150
#   7901
#   18979
#   31592
#   37103
#   48750
#   61261
#   69815
#   80710
#   90852
#   104812
#   116041
#   127716
#   139670
#   153073
#   165110
#   177203
#   186676
#   198379
#   211531
#   222983
#   235494
#   248423
#   260850
#   273835
#
# Disc length: 3800 seconds
#
# Revision: 2
# Processed by: cddbd v1.5.1PL0 Copyright (c) Steve Scherf et al.
# Submitted via: Media_Universe 3.0
#
DISCID=430ed619
DTITLE=Various Artist - Bluegrass 1941-1951 - Les Triomphes De La Country Music Vol.15
DYEAR=2002
DGENRE=Bluegrass
TTITLE0=Wade Mainer - John Henry Was A Little Boy
TTITLE1=Wade Mainer - Down In The Willow Garden
TTITLE2=Coo Creek Girls - Banjo Pickin' Girls
TTITLE3=Stanley Brothers - Cotton Eyed Joe
TTITLE4=Stanley Brothers - Mother No Longer Waits For Me
TTITLE5=Stanley Brothers - The Rambler's Blues
TTITLE6=Stanley Brothers - Let Me Be Your Friend
TTITLE7=Stanley Brothers - Molly And Tenbrooks
TTITLE8=Stanley Brothers - The Girl Behind The Bar
TTITLE9=Stanley Brothers - The Little Glass Of Wine
TTITLE10=Flatt and Scruggs - Farewell Blues
TTITLE11=Flatt and Scruggs - My Cabin In The Hills Of Caroline
TTITLE12=Flatt and Scruggs - Is It Too Late
TTITLE13=Flatt and Scruggs - Baby Blue Eyes
TTITLE14=Flatt and Scruggs - Why Don't You Tell Me
TTITLE15=Flatt and Scruggs - Foggy Mountain Breakdown
TTITLE16=Bailey Brothers - Rattlesnake Daddy
TTITLE17=Lonesome Pine Fiddlers - Pain In My Heart
TTITLE18=Lonesome Pine Fiddlers - Lonesome, Sad And Blue
TTITLE19=Jerry and Sky - Sparkling Brown Eyes
TTITLE20=Grandpa Jones - Mountain Dew
TTITLE21=Grandpa Jones - Old Rattler
TTITLE22=Shenandoah Valley Trio - Let Me Rest
TTITLE23=Wilma Lee and Stoney Cooper - Sunny Side Of The Mountain
TTITLE24=Wilma Lee and Stoney Cooper - You Tried To Ruin My Name
EXTD=YEAR: 2002
EXTT0=
EXTT1=
EXTT2=
EXTT3=
EXTT4=
EXTT5=
EXTT6=
EXTT7=
EXTT8=
EXTT9=
EXTT10=
EXTT11=
EXTT12=
EXTT13=
EXTT14=
EXTT15=
EXTT16=
EXTT17=
EXTT18=
EXTT19=
EXTT20=
EXTT21=
EXTT22=
EXTT23=
EXTT24=
PLAYORDER=
